<svg t="1571026227184" class="icon" viewBox="0 0 1024 1024" version="1.1" xmlns="http://www.w3.org/2000/svg" p-id="6363" width="640" height="640"><path d="M704 512q0-18.5-15-27l-256-160q-15.5-10-32.5-1-16.5 9-16.5 28l0 320q0 19 16.5 28 8 4 15.5 4 10 0 17-5l256-160q15-8.5 15-27zm256 0q0 48-0.5 75t-4.25 68.25-11.25 73.75q-8 36.5-34.5 61.5t-62 29q-111 12.5-335.5 12.5t-335.5-12.5q-35.5-4-62.25-29t-34.75-61.5q-7-32.5-10.75-73.75t-4.25-68.25-0.5-75 0.5-75 4.25-68.25 11.25-73.75q8-36.5 34.5-61.5t62-29q111-12.5 335.5-12.5t335.5 12.5q35.5 4 62.25 29t34.75 61.5q7 32.5 10.75 73.75t4.25 68.25 0.5 75z" p-id="6364" fill="#ffffff"></path></svg>